<?xml version="1.0" standalone="no"?>
<!DOCTYPE svg PUBLIC "-//W3C//DTD SVG 20010904//EN"
 "http://www.w3.org/TR/2001/REC-SVG-20010904/DTD/svg10.dtd">
<svg version="1.0" xmlns="http://www.w3.org/2000/svg"
 width="800.000000pt" height="800.000000pt" viewBox="0 0 800.000000 800.000000"
 preserveAspectRatio="xMidYMid meet">
<metadata>
Created by potrace 1.11, written by Peter Selinger 2001-2013
</metadata>
<g transform="translate(0.000000,800.000000) scale(0.100000,-0.100000)"
fill="#000000" stroke="none">
<path d="M3713 7905 c-41 -12 -133 -65 -133 -76 0 -3 -9 -14 -19 -26 -23 -24
-64 -103 -54 -103 4 0 2 -5 -5 -12 -16 -16 -15 -133 1 -178 36 -101 120 -182
215 -208 154 -42 324 44 381 193 27 70 23 173 -9 240 -37 79 -105 138 -195
171 -35 13 -139 12 -182 -1z"/>
<path d="M4658 7874 c-2 -1 -23 -5 -48 -9 -24 -4 -59 -13 -77 -20 -18 -8 -33
-12 -33 -9 0 6 -92 -41 -137 -71 -53 -36 -130 -112 -165 -163 -33 -48 -86
-157 -94 -193 -19 -90 -22 -121 -19 -193 6 -128 12 -156 68 -276 18 -40 97
-142 135 -175 19 -16 45 -40 59 -52 14 -13 32 -23 39 -23 8 0 14 -4 14 -10 0
-5 4 -10 9 -10 5 0 29 -9 55 -20 25 -12 49 -21 53 -21 5 -1 15 -5 24 -10 41
-21 207 -31 296 -17 72 11 190 58 251 100 56 38 162 146 183 185 8 16 17 30
20 33 3 3 17 34 31 70 24 60 29 78 43 150 7 33 8 177 2 187 -3 4 -8 24 -11 45
-15 96 -87 229 -168 310 -84 85 -197 148 -317 178 -39 10 -206 21 -213 14z"/>
<path d="M2905 7775 c-27 -9 -55 -17 -60 -18 -25 -6 -103 -58 -137 -91 -83
-81 -126 -172 -135 -284 -19 -261 202 -486 461 -469 83 6 163 29 200 58 14 11
26 17 26 12 0 -15 125 124 142 158 49 102 64 204 43 304 -2 11 -4 23 -4 28 0
28 -81 154 -125 195 -50 45 -142 98 -189 108 -61 14 -175 13 -222 -1z"/>
<path d="M5643 7469 c-135 -52 -217 -205 -188 -350 60 -302 466 -345 595 -64
52 113 26 257 -63 342 -37 36 -58 49 -129 84 -33 16 -160 9 -215 -12z"/>
<path d="M1777 6964 c-1 -2 -33 -5 -70 -8 -37 -3 -70 -7 -75 -9 -4 -3 -25 -8
-47 -12 -54 -9 -53 -9 -115 -29 -89 -30 -210 -90 -284 -139 -38 -26 -71 -47
-73 -47 -2 0 -48 -44 -102 -97 -203 -204 -312 -430 -346 -718 -12 -100 -2
-303 16 -337 6 -10 8 -18 5 -18 -3 0 0 -17 18 -90 16 -62 109 -267 138 -305 5
-5 30 -39 57 -75 26 -36 68 -85 92 -110 50 -52 179 -160 190 -160 5 0 27 -13
51 -29 37 -25 148 -82 171 -87 4 -1 9 -3 12 -4 3 -1 8 -3 13 -5 4 -1 14 -5 22
-8 16 -7 121 -35 155 -42 80 -16 154 -23 240 -23 221 1 406 52 610 168 112 63
345 280 345 320 0 6 3 10 8 10 4 0 16 17 27 37 11 20 25 41 30 47 10 11 74
147 94 201 9 27 34 115 47 170 26 112 21 412 -8 468 -5 9 -7 17 -4 17 7 0 -21
93 -47 160 -42 108 -141 280 -160 280 -6 0 -8 3 -4 6 6 6 -28 46 -103 123 -29
30 -69 64 -145 124 -30 24 -118 77 -128 77 -6 0 -18 6 -26 14 -14 13 -163 74
-194 80 -7 2 -31 8 -55 15 -24 7 -58 14 -75 17 -18 2 -50 7 -72 10 -43 6 -204
12 -208 8z"/>
<path d="M5920 6868 c-19 -5 -43 -10 -53 -13 -86 -20 -184 -130 -202 -225 -12
-64 -12 -73 -2 -124 34 -191 233 -307 415 -242 48 17 100 51 120 78 7 9 19 24
28 32 13 14 41 69 52 106 3 8 5 47 5 85 1 103 -45 193 -128 251 -65 45 -168
68 -235 52z"/>
<path d="M3123 6858 c-29 -4 -72 -17 -95 -28 -47 -22 -108 -73 -108 -90 0 -5
-4 -10 -8 -10 -8 0 -26 -37 -52 -106 -4 -11 -8 -44 -7 -74 0 -47 6 -74 33
-152 4 -10 10 -18 15 -18 5 0 9 -5 9 -11 0 -16 69 -77 111 -99 124 -65 297
-32 384 72 26 31 68 108 59 108 -3 0 -2 6 4 13 6 7 11 22 11 32 0 11 1 36 2
55 4 67 -32 159 -85 215 -63 67 -181 107 -273 93z"/>
<path d="M3996 6722 c-2 -2 -23 -5 -46 -7 -63 -7 -165 -62 -226 -123 -105
-107 -149 -249 -118 -394 49 -240 280 -391 520 -342 238 48 390 278 343 518
-38 195 -221 344 -432 351 -21 0 -39 -1 -41 -3z"/>
<path d="M6593 6654 c-55 -29 -124 -90 -124 -111 0 -4 -6 -15 -14 -23 -27 -32
-42 -120 -32 -191 20 -132 145 -253 273 -263 194 -16 345 114 351 301 2 81
-16 140 -62 201 -89 119 -258 156 -392 86z"/>
<path d="M5287 6333 c-2 -1 -23 -5 -46 -8 -24 -3 -53 -11 -65 -17 -11 -6 -21
-10 -21 -9 0 3 -55 -17 -85 -31 -71 -35 -162 -110 -227 -190 -51 -63 -108
-198 -119 -286 -33 -252 53 -455 263 -622 31 -25 144 -77 207 -96 69 -20 217
-26 279 -12 23 5 53 12 67 14 14 3 59 21 100 41 187 90 320 263 358 468 8 42
6 182 -2 228 -11 59 -43 146 -73 196 -59 102 -184 221 -270 258 -21 8 -49 20
-63 26 -14 6 -28 11 -32 12 -5 2 -9 3 -10 5 -17 13 -251 34 -261 23z"/>
<path d="M6864 6030 c-35 -9 -66 -14 -69 -12 -3 3 -5 -1 -5 -8 0 -7 -3 -11 -6
-7 -9 9 -98 -38 -160 -83 -70 -52 -147 -142 -181 -209 -15 -31 -30 -58 -33
-61 -3 -3 -7 -12 -9 -20 -2 -8 -10 -40 -19 -70 -16 -59 -21 -200 -9 -264 14
-76 20 -92 60 -176 81 -168 258 -305 442 -342 291 -59 582 83 713 347 43 86
64 177 63 270 -1 120 -6 146 -44 245 -73 192 -248 342 -455 391 -74 18 -216
17 -288 -1z"/>
<path d="M3399 5828 c-276 -77 -404 -370 -277 -630 7 -16 16 -28 21 -28 4 0 7
-6 7 -13 0 -20 106 -115 160 -142 144 -73 343 -65 474 19 57 37 129 113 156
166 64 126 64 285 -1 412 -29 58 -125 150 -186 182 -102 51 -245 65 -354 34z"/>
<path d="M4290 5838 c0 -4 -6 -5 -14 -2 -21 8 -122 -41 -165 -81 -43 -40 -86
-127 -94 -190 -15 -115 48 -240 153 -306 65 -41 175 -55 245 -32 60 21 95 37
95 45 0 5 5 8 10 8 13 0 52 42 80 86 111 173 10 418 -193 466 -52 13 -117 16
-117 6z"/>
<path d="M384 5319 c-142 -29 -248 -157 -247 -299 0 -78 7 -108 34 -158 75
-135 232 -196 379 -147 59 19 63 22 120 77 36 35 89 118 74 118 -4 0 -1 6 5
14 19 23 19 116 0 179 -46 153 -208 249 -365 216z"/>
<path d="M4230 5120 c0 -3 -12 -5 -27 -6 -42 0 -120 -13 -148 -24 -14 -5 -25
-7 -25 -5 0 2 -39 -9 -87 -26 -251 -89 -454 -245 -597 -459 -53 -78 -112 -193
-132 -255 -25 -77 -53 -194 -50 -207 2 -10 1 -20 -3 -23 -19 -11 -18 -330 1
-341 4 -3 6 -9 3 -14 -3 -5 -1 -28 5 -52 6 -24 13 -54 16 -68 21 -101 114
-292 192 -395 54 -70 170 -188 227 -230 22 -17 42 -32 45 -36 3 -3 12 -9 20
-12 8 -4 29 -16 45 -27 52 -33 168 -86 235 -108 159 -50 240 -61 405 -57 165
4 194 9 390 69 30 9 124 53 185 87 144 79 321 256 416 414 73 121 134 288 150
405 2 19 7 46 9 60 6 29 6 220 0 270 -10 90 -35 191 -69 281 -27 73 -89 195
-112 220 -8 8 -14 19 -14 23 0 25 -241 276 -265 276 -8 0 -15 4 -15 9 0 11
-123 87 -200 123 -54 26 -194 74 -241 83 -32 7 -151 24 -158 23 -3 0 -10 1
-16 2 -21 5 -185 5 -185 0z"/>
<path d="M7545 4871 c-22 -8 -41 -19 -43 -23 -2 -4 -9 -8 -17 -8 -23 0 -97
-81 -121 -134 -67 -148 -14 -319 126 -404 47 -28 82 -36 160 -36 76 0 91 3
145 31 98 51 155 138 170 261 8 68 -35 181 -90 237 -30 29 -103 73 -137 82
-49 12 -154 9 -193 -6z"/>
<path d="M6350 4829 c-43 -8 -128 -42 -159 -64 -42 -29 -134 -132 -150 -168
-35 -78 -40 -101 -45 -186 -7 -139 57 -271 179 -370 17 -14 91 -52 110 -58 88
-23 170 -31 220 -19 64 14 85 22 136 47 75 37 156 120 191 196 112 239 2 509
-247 602 -64 24 -167 33 -235 20z"/>
<path d="M2440 4623 c-147 -52 -233 -165 -233 -308 1 -125 65 -225 182 -283
77 -37 181 -37 261 0 143 66 213 214 174 366 -36 138 -148 225 -294 228 -41 1
-82 0 -90 -3z"/>
<path d="M1617 4410 c-32 -12 -75 -31 -95 -44 -43 -27 -122 -101 -122 -114 0
-4 -9 -18 -21 -31 -12 -12 -22 -28 -23 -34 -2 -7 -8 -25 -15 -41 -27 -67 -34
-168 -17 -255 19 -93 119 -228 207 -278 111 -63 257 -75 379 -32 113 40 232
161 260 264 30 110 34 198 10 260 -5 14 -7 25 -4 25 3 0 -10 28 -27 61 -35 66
-100 137 -158 173 -103 65 -263 84 -374 46z"/>
<path d="M257 4365 c-26 -7 -49 -12 -50 -12 -14 1 -85 -43 -113 -72 -58 -58
-88 -133 -88 -216 1 -83 4 -98 31 -150 86 -164 301 -219 453 -117 136 91 181
262 107 405 -23 45 -103 127 -124 127 -7 0 -13 4 -13 8 0 8 -70 27 -130 36
-14 2 -47 -2 -73 -9z"/>
<path d="M7168 4228 c-139 -34 -275 -121 -361 -230 -20 -25 -37 -49 -37 -53 0
-4 -9 -19 -19 -34 -22 -30 -60 -137 -69 -191 -12 -72 -5 -224 12 -284 27 -88
75 -184 113 -223 6 -7 20 -23 30 -36 29 -37 130 -115 182 -141 137 -70 309
-91 445 -54 39 10 76 20 81 21 6 1 35 15 65 31 329 170 449 569 267 887 -141
247 -438 375 -709 307z"/>
<path d="M705 3819 c-22 -4 -52 -12 -67 -18 -16 -6 -28 -9 -28 -6 0 2 -35 -14
-79 -36 -96 -48 -196 -138 -253 -226 -24 -37 -43 -69 -44 -72 -1 -6 -11 -34
-24 -66 -28 -68 -39 -173 -29 -285 2 -29 17 -99 26 -120 4 -8 7 -18 8 -22 2
-5 4 -10 5 -13 1 -3 3 -8 4 -12 1 -5 18 -39 39 -76 53 -94 155 -192 253 -243
69 -36 101 -47 199 -71 29 -6 174 -6 215 2 129 23 257 91 351 184 46 46 129
167 129 188 0 3 7 19 14 36 43 93 53 272 21 386 -18 65 -75 191 -87 191 -4 0
-8 5 -8 10 0 9 -9 21 -67 85 -22 25 -103 90 -123 99 -8 3 -28 14 -45 24 -16
10 -57 26 -90 36 -33 10 -69 22 -80 26 -27 9 -190 9 -240 -1z"/>
<path d="M2228 3735 c-2 -2 -15 -6 -29 -8 -39 -7 -100 -45 -141 -88 -91 -93
-110 -252 -45 -369 23 -42 77 -100 94 -100 6 0 13 -4 15 -10 7 -21 104 -47
174 -46 136 2 251 88 293 221 51 162 -52 351 -213 392 -27 7 -142 13 -148 8z"/>
<path d="M6208 3375 c-18 -6 -37 -12 -41 -12 -31 -6 -109 -55 -153 -97 -53
-52 -110 -142 -118 -186 -2 -14 -5 -25 -6 -25 -3 0 -9 -38 -13 -79 -2 -21 0
-60 5 -85 5 -25 10 -53 11 -61 7 -43 66 -140 116 -189 93 -92 218 -138 344
-127 80 7 117 18 182 55 109 62 173 146 215 284 12 38 9 151 -4 212 -10 41
-56 135 -67 135 -5 0 -9 6 -9 14 0 20 -90 96 -153 128 -90 47 -226 62 -309 33z"/>
<path d="M5261 3074 c-30 -8 -61 -19 -68 -25 -7 -7 -13 -8 -13 -5 0 4 -21 -7
-46 -25 -161 -110 -233 -290 -190 -471 48 -201 242 -347 449 -337 200 10 371
155 411 350 44 217 -70 419 -284 503 -59 24 -189 29 -259 10z"/>
<path d="M2075 3042 c-2 -2 -27 -5 -56 -7 -89 -6 -191 -26 -249 -48 -8 -3 -41
-15 -72 -26 -142 -51 -292 -146 -400 -254 -72 -72 -148 -162 -148 -176 0 -6
-3 -11 -8 -11 -8 0 -10 -2 -77 -136 -66 -130 -91 -206 -111 -334 -3 -19 -7
-45 -9 -57 -3 -22 -8 -142 -5 -153 0 -3 3 -39 5 -80 4 -72 8 -101 19 -138 3
-9 7 -28 10 -42 12 -70 102 -290 118 -290 5 0 6 -4 3 -10 -3 -5 -2 -10 3 -10
5 0 15 -13 21 -28 6 -15 23 -41 36 -56 14 -16 25 -32 25 -36 0 -5 42 -50 94
-101 98 -98 100 -100 156 -139 19 -13 37 -27 40 -30 23 -25 277 -143 305 -141
2 0 26 -6 52 -14 27 -7 68 -16 93 -20 25 -4 54 -9 65 -11 48 -10 257 -4 335
10 128 23 303 82 370 126 8 5 33 19 55 31 22 12 42 24 45 28 3 3 30 25 60 47
70 53 150 133 208 209 25 33 49 62 52 65 8 8 39 66 81 152 40 82 87 223 95
285 2 21 8 61 12 88 9 57 8 203 -2 284 -7 59 -41 204 -55 236 -5 11 -24 54
-42 95 -18 41 -46 94 -61 117 -15 23 -28 45 -28 48 0 23 -208 245 -262 280 -8
6 -42 28 -74 50 -157 107 -361 177 -554 190 -30 2 -55 4 -55 5 0 3 -87 5 -90
2z"/>
<path d="M7237 2840 c-68 -26 -113 -56 -148 -101 -135 -171 -61 -423 145 -494
47 -16 139 -18 188 -4 226 66 302 351 139 519 -81 83 -223 118 -324 80z"/>
<path d="M4017 2664 c-1 -1 -20 -5 -42 -8 -104 -17 -199 -59 -286 -127 -55
-44 -119 -109 -119 -121 0 -4 -7 -13 -15 -21 -51 -51 -118 -253 -117 -352 0
-92 27 -203 69 -290 65 -134 160 -228 298 -298 146 -73 328 -83 497 -26 146
49 288 171 358 309 50 99 62 150 65 280 3 114 1 132 -24 206 -43 131 -114 232
-221 316 -69 54 -187 108 -270 124 -34 6 -188 13 -193 8z"/>
<path d="M6470 2428 c-73 -9 -105 -14 -105 -17 0 -2 -8 -4 -17 -6 -26 -5 -158
-67 -158 -74 0 -4 -14 -15 -31 -25 -100 -59 -206 -217 -243 -361 -53 -206 8
-434 157 -588 95 -98 186 -154 300 -183 9 -2 27 -7 40 -10 12 -3 63 -8 114
-10 287 -11 556 183 634 456 24 85 32 210 18 285 -5 28 -11 60 -13 73 -3 12
-18 51 -34 86 -122 260 -384 408 -662 374z"/>
<path d="M5488 2124 c-3 -2 -21 -6 -39 -8 -77 -9 -119 -28 -176 -83 -102 -97
-128 -246 -65 -369 105 -205 397 -228 535 -42 138 187 27 458 -202 494 -20 3
-39 8 -42 10 -3 2 -8 1 -11 -2z"/>
<path d="M3568 1485 c-2 -1 -23 -5 -48 -7 -112 -12 -219 -95 -258 -201 -27
-71 -23 -175 8 -240 51 -109 160 -179 282 -182 38 -1 71 2 74 7 3 4 15 8 27 8
29 0 119 61 151 102 93 123 89 289 -12 404 -29 33 -104 84 -132 89 -10 2 -34
8 -53 13 -20 6 -37 9 -39 7z"/>
<path d="M5630 1448 c-19 -5 -44 -10 -54 -13 -54 -13 -195 -108 -196 -131 0
-7 -6 -14 -13 -17 -14 -5 -72 -118 -83 -162 -4 -16 -8 -64 -9 -105 -2 -67 3
-98 22 -150 3 -8 7 -20 9 -27 5 -26 78 -125 115 -155 246 -204 599 -111 710
187 39 105 29 237 -27 347 -47 92 -158 183 -265 217 -46 15 -164 20 -209 9z"/>
<path d="M4020 963 c-14 -3 -56 -20 -95 -38 -151 -73 -245 -216 -250 -380 -1
-38 4 -88 10 -110 7 -22 12 -42 12 -45 -1 -3 10 -27 24 -55 49 -102 179 -206
286 -231 91 -21 217 -9 293 28 91 45 183 136 215 213 36 89 35 84 39 170 5
126 -36 231 -126 323 -48 49 -139 104 -198 119 -30 7 -175 11 -210 6z"/>
<path d="M4954 839 c-129 -17 -242 -117 -269 -239 -13 -54 -12 -90 3 -149 43
-170 203 -265 382 -226 132 29 233 156 233 294 0 106 -14 144 -77 218 -63 72
-176 115 -272 102z"/>
<path d="M2685 801 c-33 -15 -75 -43 -94 -62 -36 -37 -80 -121 -86 -166 -2
-16 -4 -30 -5 -33 -6 -16 3 -81 16 -122 85 -262 458 -289 580 -41 42 86 44
185 4 267 -33 70 -74 112 -145 152 -41 23 -64 28 -130 30 -69 2 -88 -2 -140
-25z"/>
</g>
</svg>
