<svg xmlns="http://www.w3.org/2000/svg" viewBox="0 0 50 49">
  <g fill="none" fill-rule="evenodd">
    <path fill="#B27830" d="M24.94 15.72c0 1.518-1.238 2.75-2.766 2.75-1.527 0-2.764-1.232-2.764-2.75 0-1.52 1.237-2.75 2.764-2.75 1.528 0 2.766 1.23 2.766 2.75z"/>
    <path fill="#69A71C" d="M20.67 37.85c0 4.067-3.315 7.363-7.405 7.363S5.86 41.917 5.86 37.85s3.315-7.364 7.405-7.364 7.405 3.297 7.405 7.364M49.77 26.97c0 2.218-1.808 4.017-4.04 4.017-2.23 0-4.037-1.8-4.037-4.016 0-2.217 1.808-4.015 4.038-4.015 2.232 0 4.04 1.798 4.04 4.016M29.05 14.94c0 1.09-.887 1.973-1.982 1.973s-1.983-.883-1.983-1.972c0-1.087.888-1.97 1.983-1.97 1.095 0 1.982.883 1.982 1.97M4.784 18.18c0 1.088-.888 1.97-1.983 1.97-1.094 0-1.98-.882-1.98-1.97 0-1.09.886-1.972 1.98-1.972 1.096 0 1.984.883 1.984 1.97M25.757 1.972c0 1.088-.887 1.97-1.982 1.97s-1.982-.882-1.982-1.97C21.793.882 22.68 0 23.775 0s1.982.883 1.982 1.972M47.823 33.61c0 1.088-.887 1.97-1.982 1.97-1.094 0-1.982-.882-1.982-1.97 0-1.09.888-1.972 1.983-1.972 1.096 0 1.983.883 1.983 1.97M17.735 22.52c0 1.09-.887 1.972-1.982 1.972s-1.982-.883-1.982-1.97c0-1.09.888-1.973 1.983-1.973 1.095 0 1.982.882 1.982 1.97"/>
    <path fill="#FF820F" d="M18.158 10.074c1.806 3.65.297 8.063-3.373 9.86-3.67 1.796-8.107.295-9.914-3.354-1.805-3.65-.295-8.063 3.374-9.86 3.67-1.796 8.108-.294 9.914 3.354M38.474 43.144c0 1.52-1.238 2.75-2.765 2.75-1.528 0-2.766-1.23-2.766-2.75s1.238-2.75 2.765-2.75c1.526 0 2.764 1.23 2.764 2.75M28.486 46.183c0 1.52-1.237 2.75-2.764 2.75-1.528 0-2.766-1.23-2.766-2.75 0-1.518 1.238-2.75 2.766-2.75 1.527 0 2.764 1.232 2.764 2.75M42.985 22.016c0 1.518-1.238 2.75-2.765 2.75-1.527 0-2.765-1.232-2.765-2.75 0-1.52 1.238-2.75 2.765-2.75 1.527 0 2.765 1.23 2.765 2.75M39.31 8.503c0 1.088-.888 1.97-1.983 1.97-1.094 0-1.982-.882-1.982-1.97 0-1.09.888-1.972 1.982-1.972 1.095 0 1.983.884 1.983 1.973M16.28 28.094c0 1.088-.887 1.97-1.982 1.97s-1.983-.882-1.983-1.97c0-1.09.888-1.972 1.983-1.972 1.095 0 1.982.883 1.982 1.972M37.546 13.912c0 2.218-1.808 4.016-4.04 4.016-2.23 0-4.037-1.798-4.037-4.016s1.807-4.016 4.037-4.016 4.04 1.798 4.04 4.016"/>
    <path fill="#53B4FF" d="M36.29 38.204c0 1.09-.887 1.972-1.982 1.972s-1.983-.883-1.983-1.972c0-1.088.888-1.97 1.983-1.97 1.095 0 1.982.882 1.982 1.97M24.212 42.202c0 1.088-.888 1.972-1.983 1.972-1.096 0-1.983-.884-1.983-1.972 0-1.09.887-1.972 1.982-1.972 1.094 0 1.982.883 1.982 1.972M44.076 9.64c0 1.09-.888 1.973-1.983 1.973-1.094 0-1.982-.883-1.982-1.972 0-1.087.89-1.97 1.983-1.97 1.095 0 1.983.883 1.983 1.97M3.965 24.13c0 1.09-.888 1.973-1.983 1.973C.887 26.103 0 25.22 0 24.13s.887-1.97 1.982-1.97 1.983.882 1.983 1.97M21.774 8.574c0 1.088-.888 1.97-1.983 1.97-1.094 0-1.98-.882-1.98-1.97 0-1.09.886-1.972 1.98-1.972 1.096 0 1.984.883 1.984 1.972M21.593 3.563c0 1.52-1.24 2.75-2.765 2.75-1.527 0-2.766-1.23-2.766-2.75 0-1.518 1.24-2.75 2.766-2.75s2.765 1.232 2.765 2.75M29.578 36.848c0 2.217-1.808 4.015-4.038 4.015-2.23 0-4.04-1.798-4.04-4.015 0-2.218 1.81-4.016 4.04-4.016s4.038 1.798 4.038 4.016M44.93 38.295c0 2.217-1.807 4.016-4.037 4.016s-4.04-1.798-4.04-4.015c0-2.218 1.81-4.016 4.04-4.016s4.038 1.797 4.038 4.015"/>
    <path fill="#B27830" d="M9.168 29.576c0 2.218-1.808 4.015-4.04 4.015-2.23 0-4.037-1.796-4.037-4.014S2.9 25.56 5.13 25.56s4.038 1.798 4.038 4.016M19.573 46.272c0 1.09-.888 1.972-1.983 1.972-1.095 0-1.982-.883-1.982-1.972 0-1.088.887-1.97 1.982-1.97s1.983.882 1.983 1.97M27.996 10.22c0 1.52-1.238 2.75-2.765 2.75-1.526 0-2.764-1.23-2.764-2.75 0-1.518 1.238-2.75 2.765-2.75 1.528 0 2.766 1.232 2.766 2.75M24.72 15.72c0 1.518-1.237 2.75-2.764 2.75-1.527 0-2.765-1.232-2.765-2.75 0-1.52 1.24-2.75 2.766-2.75 1.527 0 2.765 1.23 2.765 2.75M49.788 20.91c0 1.09-.888 1.972-1.983 1.972-1.095 0-1.982-.883-1.982-1.97 0-1.09.887-1.973 1.982-1.973s1.983.882 1.983 1.97M33.58 4.287c0 2.218-1.808 4.016-4.038 4.016-2.23 0-4.04-1.798-4.04-4.016S27.313.27 29.543.27s4.038 1.8 4.038 4.017"/>
    <path fill="#0B5FBF" d="M34.46 24.837c0 4.066-3.315 7.363-7.405 7.363s-7.405-3.297-7.405-7.363c0-4.067 3.315-7.363 7.405-7.363s7.405 3.296 7.405 7.363M33.18 46.2c0 1.09-.888 1.97-1.983 1.97-1.095 0-1.983-.88-1.983-1.97 0-1.09.888-1.972 1.983-1.972 1.095 0 1.982.883 1.982 1.972M42.257 31.06c0 1.518-1.238 2.748-2.765 2.748-1.527 0-2.765-1.23-2.765-2.75 0-1.518 1.238-2.75 2.765-2.75 1.527 0 2.765 1.232 2.765 2.75"/>
    <path fill="#0B5FBF" d="M36.345 32.94c0 1.52-1.238 2.75-2.765 2.75-1.527 0-2.765-1.23-2.765-2.75 0-1.518 1.238-2.75 2.765-2.75 1.527 0 2.765 1.232 2.765 2.75M13.734 24.547c0 1.52-1.238 2.75-2.765 2.75-1.528 0-2.766-1.23-2.766-2.75s1.238-2.75 2.765-2.75c1.526 0 2.764 1.23 2.764 2.75M38 4.63c0 1.09-.888 1.972-1.982 1.972-1.095 0-1.983-.883-1.983-1.972 0-1.088.888-1.97 1.983-1.97C37.112 2.66 38 3.54 38 4.63M47.842 15.72c0 2.217-1.808 4.015-4.04 4.015-2.23 0-4.037-1.798-4.037-4.016 0-2.22 1.808-4.016 4.038-4.016 2.23 0 4.04 1.797 4.04 4.015"/>
  </g>
</svg>
